<svg width="52" height="52" viewBox="0 0 52 52" fill="none" xmlns="http://www.w3.org/2000/svg" role="img" aria-label="AI guide"><circle cx="26" cy="26" r="24" fill="url(#glass)" stroke="rgba(255,255,255,.82)" stroke-width="1"/><circle cx="26" cy="26" r="22.5" stroke="currentColor" stroke-width="1.25" opacity=".25"/><path d="M18.2 31.2h-1.1a4.35 4.35 0 0 1-4.35-4.35v-4.4a4.35 4.35 0 0 1 4.35-4.35h10.8a4.35 4.35 0 0 1 4.35 4.35v4.4a4.35 4.35 0 0 1-4.35 4.35h-5.55l-4.15 3v-3Z" stroke="currentColor" stroke-width="2" stroke-linecap="round" stroke-linejoin="round"/><path d="M37.8 16.1c.42 2.15 1.6 3.32 3.75 3.75-2.15.42-3.33 1.6-3.75 3.75-.42-2.15-1.6-3.33-3.75-3.75 2.15-.43 3.33-1.6 3.75-3.75ZM34 8.6c.26 1.35 1 2.09 2.35 2.35-1.35.26-2.09 1-2.35 2.35-.26-1.35-1-2.09-2.35-2.35 1.35-.26 2.09-1 2.35-2.35Z" fill="currentColor"/><circle cx="18.8" cy="24.6" r="1.35" fill="currentColor"/><circle cx="23.1" cy="24.6" r="1.35" fill="currentColor"/><circle cx="27.4" cy="24.6" r="1.35" fill="currentColor"/><defs><linearGradient id="glass" x1="7" y1="7" x2="43" y2="47" gradientUnits="userSpaceOnUse"><stop stop-color="white" stop-opacity=".88"/><stop offset=".56" stop-color="#F6FAFF" stop-opacity=".72"/><stop offset="1" stop-color="#E8F1FF" stop-opacity=".9"/></linearGradient></defs></svg>