<svg width="64" height="64" viewBox="0 0 64 64" fill="none" xmlns="http://www.w3.org/2000/svg" role="img" aria-label="Empty history"><path d="M13 15c0-2.2 1.8-4 4-4h10c3.05 0 5.85 1.25 7.85 3.25A11.1 11.1 0 0 1 42.7 11H47c2.2 0 4 1.8 4 4v34.8c0 1.3-1.25 2.23-2.5 1.9l-4.05-1.1a16 16 0 0 0-12.4 1.63 4 4 0 0 1-4.1 0 16 16 0 0 0-12.4-1.63l-2.55.7V15Z" stroke="currentColor" stroke-width="2.2" stroke-linecap="round" stroke-linejoin="round" opacity=".72"/><path d="M32 14.25v37.1M18.5 21h7.5M18.5 27h7.5M39.2 21h6M39.2 27h6" stroke="currentColor" stroke-width="2" stroke-linecap="round" opacity=".5"/></svg>