<svg width="32" height="32" viewBox="0 0 32 32" fill="none" xmlns="http://www.w3.org/2000/svg" role="img" aria-label="PDF file"><rect x="6" y="3.5" width="18" height="25" rx="3.2" fill="currentColor" opacity=".12"/><path d="M20.5 3.5H9.2A3.2 3.2 0 0 0 6 6.7v18.6a3.2 3.2 0 0 0 3.2 3.2h13.6a3.2 3.2 0 0 0 3.2-3.2V9l-5.5-5.5Z" stroke="currentColor" stroke-width="1.45" stroke-linejoin="round"/><path d="M20.5 3.8V8a1 1 0 0 0 1 1h4.2" stroke="currentColor" stroke-width="1.45" stroke-linecap="round" stroke-linejoin="round"/><path d="M10.5 20.9c2.15-1.1 4.35-3.75 5.25-7.3.35-1.42-.15-2.55-.9-2.43-.88.14-.9 1.8-.38 3.15.9 2.32 2.8 4.88 5.28 5.65 1.23.38 2.2.1 2.13-.58-.1-1.1-3.52-.78-6.42-.1-2.15.5-4.95 1.15-4.96 1.61Z" stroke="currentColor" stroke-width="1.18" stroke-linecap="round" stroke-linejoin="round"/></svg>