<svg width="22" height="22" viewBox="0 0 22 22" fill="none" xmlns="http://www.w3.org/2000/svg" role="img" aria-label="Settings"><path d="M9.55 2.75h2.9l.42 2.05c.45.16.88.34 1.27.56l1.75-1.15 2.05 2.05-1.15 1.75c.22.4.4.82.56 1.27l2.05.42v2.9l-2.05.42c-.16.45-.34.88-.56 1.27l1.15 1.75-2.05 2.05-1.75-1.15c-.4.22-.82.4-1.27.56l-.42 2.05h-2.9l-.42-2.05a6.78 6.78 0 0 1-1.27-.56l-1.75 1.15-2.05-2.05 1.15-1.75c-.22-.4-.4-.82-.56-1.27l-2.05-.42v-2.9l2.05-.42c.16-.45.34-.88.56-1.27L4.06 6.26l2.05-2.05 1.75 1.15c.4-.22.82-.4 1.27-.56l.42-2.05Z" stroke="currentColor" stroke-width="1.25" stroke-linejoin="round"/><circle cx="11" cy="11" r="2.8" stroke="currentColor" stroke-width="1.25"/></svg>