<svg width="28" height="28" viewBox="0 0 28 28" fill="none" xmlns="http://www.w3.org/2000/svg" role="img" aria-label="Mag2Read logo"><path d="M6.25 5.6C6.25 4.72 6.97 4 7.85 4h6.05c1.25 0 2.4.5 3.25 1.3.85-.8 2-1.3 3.25-1.3h.75c.88 0 1.6.72 1.6 1.6v16.35c0 .52-.5.9-1 .76l-1.9-.52a7.6 7.6 0 0 0-5.9.77c-.5.3-1.12.3-1.62 0a7.6 7.6 0 0 0-5.9-.77l-1.18.32A.78.78 0 0 1 4.25 21.76V7.1" stroke="currentColor" stroke-width="1.7" stroke-linecap="round" stroke-linejoin="round"/><path d="M14 5.3v17M8.75 8.3h3.25M8.75 11.4h3.25M19.25 8.3h2.1M19.25 11.4h2.1" stroke="currentColor" stroke-width="1.25" stroke-linecap="round"/><path d="M5.25 14.5h4.5M5.25 17h6.1" stroke="currentColor" stroke-width="1.2" stroke-linecap="round" opacity=".55"/></svg>